<?xml version="1.0" encoding="UTF-8" standalone="no"?>
<!DOCTYPE svg PUBLIC "-//W3C//DTD SVG 1.1//EN"
 "http://www.w3.org/Graphics/SVG/1.1/DTD/svg11.dtd">
<!-- Generated by graphviz version 2.40.1 (20161225.0304)
 -->
<!-- Title: G Pages: 1 -->
<svg width="202pt" height="158pt"
 viewBox="0.00 0.00 201.98 157.51" xmlns="http://www.w3.org/2000/svg" xmlns:xlink="http://www.w3.org/1999/xlink">
<g id="graph0" class="graph" transform="scale(1 1) rotate(0) translate(4 153.5077)">
<title>G</title>
<polygon fill="#ffffff" stroke="transparent" points="-4,4 -4,-153.5077 197.9811,-153.5077 197.9811,4 -4,4"/>
<!-- Client -->
<g id="node1" class="node">
<title>Client</title>
<ellipse fill="#2f4f4f" stroke="#000000" stroke-width="0" cx="150.9811" cy="-69.3538" rx="7" ry="7"/>
<text text-anchor="middle" x="132.9809" y="-79.0538" font-family="Times,serif" font-size="9.00" fill="#000000">Client</text>
</g>
<!-- Prototype -->
<g id="node2" class="node">
<title>Prototype</title>
<ellipse fill="#b0e2ff" stroke="#000000" stroke-width="0" cx="186.9811" cy="-131.7077" rx="7" ry="7"/>
<text text-anchor="middle" x="186.9811" y="-129.0077" font-family="Times,serif" font-size="9.00" fill="#000000">I</text>
<text text-anchor="middle" x="162.4829" y="-141.4077" font-family="Times,serif" font-size="9.00" fill="#000000">Prototype</text>
</g>
<!-- Client&#45;&gt;Prototype -->
<g id="edge1" class="edge">
<title>Client&#45;&gt;Prototype</title>
<path fill="none" stroke="#708090" stroke-dasharray="5,2" d="M154.5645,-75.5605C160.0633,-85.0847 170.7423,-103.5813 178.3398,-116.7405"/>
<polygon fill="#708090" stroke="#708090" points="183.4122,-125.5261 174.515,-119.1158 180.9121,-121.1959 178.4121,-116.8658 178.4121,-116.8658 178.4121,-116.8658 180.9121,-121.1959 182.3092,-114.6158 183.4122,-125.5261 183.4122,-125.5261"/>
</g>
<!-- ConcretePrototype1 -->
<g id="node3" class="node">
<title>ConcretePrototype1</title>
<ellipse fill="#9ac0cd" stroke="#000000" stroke-width="0" cx="78.9811" cy="-69.3538" rx="7" ry="7"/>
<text text-anchor="middle" x="78.9811" y="-66.6538" font-family="Times,serif" font-size="9.00" fill="#000000">C</text>
<text text-anchor="middle" x="35.9906" y="-79.0538" font-family="Times,serif" font-size="9.00" fill="#000000">ConcretePrototype1</text>
</g>
<!-- Client&#45;&gt;ConcretePrototype1 -->
<g id="edge2" class="edge">
<title>Client&#45;&gt;ConcretePrototype1</title>
<path fill="none" stroke="#708090" stroke-dasharray="5,2" d="M143.8142,-69.3538C132.8166,-69.3538 111.4586,-69.3538 96.2637,-69.3538"/>
<polygon fill="#708090" stroke="#708090" points="86.119,-69.3538 96.119,-64.8539 91.119,-69.3539 96.119,-69.3539 96.119,-69.3539 96.119,-69.3539 91.119,-69.3539 96.1189,-73.8539 86.119,-69.3538 86.119,-69.3538"/>
</g>
<!-- ConcretePrototype2 -->
<g id="node4" class="node">
<title>ConcretePrototype2</title>
<ellipse fill="#9ac0cd" stroke="#000000" stroke-width="0" cx="186.9811" cy="-7" rx="7" ry="7"/>
<text text-anchor="middle" x="186.9811" y="-4.3" font-family="Times,serif" font-size="9.00" fill="#000000">C</text>
<text text-anchor="middle" x="143.9905" y="-16.7" font-family="Times,serif" font-size="9.00" fill="#000000">ConcretePrototype2</text>
</g>
<!-- Client&#45;&gt;ConcretePrototype2 -->
<g id="edge4" class="edge">
<title>Client&#45;&gt;ConcretePrototype2</title>
<path fill="none" stroke="#708090" stroke-dasharray="5,2" d="M154.5645,-63.1471C160.0633,-53.6229 170.7423,-35.1263 178.3398,-21.9671"/>
<polygon fill="#708090" stroke="#708090" points="183.4122,-13.1816 182.3092,-24.0919 180.9121,-17.5117 178.4121,-21.8419 178.4121,-21.8419 178.4121,-21.8419 180.9121,-17.5117 174.515,-19.5918 183.4122,-13.1816 183.4122,-13.1816"/>
</g>
<!-- ConcretePrototype1&#45;&gt;Prototype -->
<g id="edge3" class="edge">
<title>ConcretePrototype1&#45;&gt;Prototype</title>
<path fill="none" stroke="#708090" stroke-dasharray="5,2" d="M85.0971,-72.8849C101.652,-82.4429 147.7103,-109.0347 171.8229,-122.956"/>
<polygon fill="none" stroke="#708090" points="170.2529,-126.091 180.6632,-128.06 173.7529,-120.0289 170.2529,-126.091"/>
</g>
<!-- ConcretePrototype2&#45;&gt;Prototype -->
<g id="edge5" class="edge">
<title>ConcretePrototype2&#45;&gt;Prototype</title>
<path fill="none" stroke="#708090" stroke-dasharray="5,2" d="M186.9811,-14.0621C186.9811,-33.1781 186.9811,-86.3617 186.9811,-114.2044"/>
<polygon fill="none" stroke="#708090" points="183.4812,-114.4123 186.9811,-124.4123 190.4812,-114.4124 183.4812,-114.4123"/>
</g>
</g>
</svg>
