<?xml version="1.0" standalone="no"?>
<svg xmlns="http://www.w3.org/2000/svg" xmlns:xlink="http://www.w3.org/1999/xlink" width="216pt" height="170pt" viewBox="0.00 0.00 216.23 169.75">
<g id="graph0" class="graph" transform="translate(4,165.75) scale(1)" data-name="G">

<polygon fill="white" stroke="none" points="-4,4 -4,-165.75 212.23,-165.75 212.23,4 -4,4"/>
<!-- Builder -->

<!-- Product -->

<!-- Builder&#45;&gt;Product -->
<g id="edge1" class="edge" data-name="Client-&gt;Builder" data-comment="Builder-&gt;Product">

<path fill="none" stroke="slategray" d="M148.36,-79.38C157.24,-85.84 175.25,-98.92 187.76,-108.01" stroke-dasharray="5,2"/>
<polygon fill="slategray" stroke="slategray" points="195.7,-113.78 184.96,-111.54 191.65,-110.84 187.61,-107.9 187.61,-107.9 187.61,-107.9 191.65,-110.84 190.25,-104.26 195.7,-113.78 195.7,-113.78"/>
</g>
<!-- Client -->
<g id="node1" class="node" pointer-events="visible" data-name="Client">

<ellipse fill="rgb(47, 79, 79)" stroke="black" cx="142.98" cy="-75.48" rx="7" ry="7" stroke-width="0"/>
<text text-anchor="middle" x="124.98" y="-85.18" font-family="Times,serif" font-size="9">Client</text>
</g>
<!-- Client&#45;&gt;Builder -->
<g id="edge2" class="edge" data-name="Client-&gt;ConcreteBuilder1" data-comment="Client-&gt;Builder">

<path fill="none" stroke="slategray" d="M140.85,-82.04C137.42,-92.6 130.58,-113.65 125.83,-128.25" stroke-dasharray="5,2"/>
<polygon fill="slategray" stroke="slategray" points="122.83,-137.51 121.64,-126.61 124.37,-132.75 125.92,-128 125.92,-128 125.92,-128 124.37,-132.75 130.2,-129.39 122.83,-137.51 122.83,-137.51"/>
</g>
<!-- Director -->

<!-- Client&#45;&gt;Director -->
<g id="edge3" class="edge" data-name="Client-&gt;ConcreteBuilder2" data-comment="Client-&gt;Director">

<path fill="none" stroke="slategray" d="M136.08,-75.48C124.97,-75.48 102.84,-75.48 87.49,-75.48" stroke-dasharray="5,2"/>
<polygon fill="slategray" stroke="slategray" points="77.76,-75.48 87.76,-70.98 82.76,-75.48 87.76,-75.48 87.76,-75.48 87.76,-75.48 82.76,-75.48 87.76,-79.98 77.76,-75.48 77.76,-75.48"/>
</g>
<!-- ConcreteBuilder -->

<!-- Client&#45;&gt;ConcreteBuilder -->
<g id="edge5" class="edge" data-name="Client-&gt;Product" data-comment="Client-&gt;ConcreteBuilder">

<path fill="none" stroke="slategray" d="M148.36,-71.57C157.24,-65.12 175.25,-52.03 187.76,-42.94" stroke-dasharray="5,2"/>
<polygon fill="slategray" stroke="slategray" points="195.7,-37.18 190.25,-46.69 191.65,-40.11 187.61,-43.05 187.61,-43.05 187.61,-43.05 191.65,-40.11 184.96,-39.41 195.7,-37.18 195.7,-37.18"/>
</g><g id="edge4" class="edge" data-name="Client-&gt;Director" data-comment="Client-&gt;ConcreteBuilder">

<path fill="none" stroke="slategray" d="M140.85,-68.91C137.42,-58.35 130.58,-37.3 125.83,-22.7" stroke-dasharray="5,2"/>
<polygon fill="slategray" stroke="slategray" points="122.83,-13.45 130.2,-21.57 124.37,-18.2 125.92,-22.96 125.92,-22.96 125.92,-22.96 124.37,-18.2 121.64,-24.35 122.83,-13.45 122.83,-13.45"/>
</g>
<!-- Client&#45;&gt;Product -->

<!-- Director&#45;&gt;Builder -->

<g id="node2" class="node" pointer-events="visible" data-name="Builder" data-comment="Director-&gt;Builder">

<ellipse fill="rgb(176, 226, 255)" stroke="black" stroke-width="0" cx="201.23" cy="-117.8" rx="7" ry="7"/>
<text text-anchor="middle" x="201.23" y="-115.1" font-family="Times,serif" font-size="9.00">I</text>
<text text-anchor="middle" x="180.73" y="-127.5" font-family="Times,serif" font-size="9.00">Builder</text>
</g><g id="node3" class="node" pointer-events="visible" data-name="ConcreteBuilder1" data-comment="Director-&gt;Builder">

<ellipse fill="#9ac0cd" stroke="black" stroke-width="0" cx="120.73" cy="-143.95" rx="7" ry="7"/>
<text text-anchor="middle" x="120.73" y="-141.25" font-family="Times,serif" font-size="9.00">C</text>
<text text-anchor="middle" x="81.74" y="-153.65" font-family="Times,serif" font-size="9.00">ConcreteBuilder1</text>
</g><g id="node4" class="node" pointer-events="visible" data-name="ConcreteBuilder2" data-comment="Director-&gt;Builder">

<ellipse fill="#9ac0cd" stroke="black" stroke-width="0" cx="70.98" cy="-75.48" rx="7" ry="7"/>
<text text-anchor="middle" x="70.98" y="-72.78" font-family="Times,serif" font-size="9.00">C</text>
<text text-anchor="middle" x="31.99" y="-85.18" font-family="Times,serif" font-size="9.00">ConcreteBuilder2</text>
</g><g id="node5" class="node" pointer-events="visible" data-name="Director" data-comment="Director-&gt;Builder">

<ellipse fill="#9ac0cd" stroke="black" stroke-width="0" cx="120.73" cy="-7" rx="7" ry="7"/>
<text text-anchor="middle" x="120.73" y="-4.3" font-family="Times,serif" font-size="9.00">C</text>
<text text-anchor="middle" x="98.74" y="-16.7" font-family="Times,serif" font-size="9.00">Director</text>
</g><g id="node6" class="node" pointer-events="visible" data-name="Product" data-comment="Director-&gt;Builder">

<ellipse fill="#9ac0cd" stroke="black" stroke-width="0" cx="201.23" cy="-33.16" rx="7" ry="7"/>
<text text-anchor="middle" x="201.23" y="-30.46" font-family="Times,serif" font-size="9.00">C</text>
<text text-anchor="middle" x="180.23" y="-42.86" font-family="Times,serif" font-size="9.00">Product</text>
</g><!-- Builder&#45;&gt;Product -->
<g id="edge6" class="edge" data-name="Builder-&gt;Product">

<path fill="none" stroke="slategray" d="M201.23,-110.87C201.23,-97.66 201.23,-68.53 201.23,-49.93" stroke-dasharray="5,2"/>
<polygon fill="slategray" stroke="slategray" points="201.23,-39.94 205.73,-49.94 201.23,-44.94 201.23,-49.94 201.23,-49.94 201.23,-49.94 201.23,-44.94 196.73,-49.94 201.23,-39.94 201.23,-39.94"/>
</g>
<!-- ConcreteBuilder1&#45;&gt;Builder -->
<g id="edge7" class="edge" data-name="ConcreteBuilder1-&gt;Builder">

<path fill="none" stroke="slategray" d="M127.32,-141.81C139.88,-137.73 167.58,-128.73 185.28,-122.98" stroke-dasharray="5,2"/>
<polygon fill="slategray" stroke="slategray" points="194.78,-119.89 186.66,-127.26 190.02,-121.44 185.27,-122.98 185.27,-122.98 185.27,-122.98 190.02,-121.44 183.87,-118.7 194.78,-119.89 194.78,-119.89"/>
</g>
<!-- ConcreteBuilder1&#45;&gt;Builder -->
<g id="edge8" class="edge" data-name="ConcreteBuilder2-&gt;Builder" data-comment="ConcreteBuilder1-&gt;Builder">

<path fill="none" stroke="slategray" d="M77.62,-77.63C97.48,-84.09 156.81,-103.36 185.44,-112.67" stroke-dasharray="5,2"/>
<polygon fill="slategray" stroke="slategray" points="194.76,-115.69 183.86,-116.88 190,-114.15 185.25,-112.6 185.25,-112.6 185.25,-112.6 190,-114.15 186.64,-108.32 194.76,-115.69 194.76,-115.69"/>
</g>
<!-- B -->
<g id="edge9" class="edge" data-name="Director-&gt;Builder" data-comment="B">

<path fill="none" stroke="slategray" d="M124.83,-12.65C137.11,-29.54 173.78,-80.01 191.47,-104.36" stroke-dasharray="5,2"/>
<polygon fill="slategray" stroke="slategray" points="197.23,-112.29 187.71,-106.85 194.29,-108.25 191.35,-104.2 191.35,-104.2 191.35,-104.2 194.29,-108.25 194.99,-101.56 197.23,-112.29 197.23,-112.29"/>
</g>
<!-- P -->
<g id="edge10" class="edge" data-name="Director-&gt;Product" data-comment="P">

<path fill="none" stroke="slategray" d="M127.32,-9.14C139.88,-13.22 167.58,-22.22 185.28,-27.97" stroke-dasharray="5,2"/>
<polygon fill="slategray" stroke="slategray" points="194.78,-31.06 183.87,-32.25 190.02,-29.51 185.27,-27.97 185.27,-27.97 185.27,-27.97 190.02,-29.51 186.66,-23.69 194.78,-31.06 194.78,-31.06"/>
</g>
</g>
</svg>