<?xml version="1.0" standalone="no"?>
<svg xmlns="http://www.w3.org/2000/svg" xmlns:xlink="http://www.w3.org/1999/xlink" width="289pt" height="238pt" viewBox="0.00 0.00 289.23 238.23">
<g id="graph0" class="graph" transform="translate(4,234.22999572753906) scale(1)" data-name="G">

<polygon fill="white" stroke="none" points="-4,4 -4,-234.23 285.23,-234.23 285.23,4 -4,4"/>
<!-- Client -->
<g id="node1" class="node" pointer-events="visible" data-name="Client">

<ellipse fill="darkslategray" stroke="black" stroke-width="0" cx="215.98" cy="-75.48" rx="7" ry="7"/>
<text text-anchor="middle" x="197.98" y="-85.18" font-family="Times,serif" font-size="9.00">Client</text>
</g>
<!-- Factory -->
<g id="node2" class="node" pointer-events="visible" data-name="Factory">

<ellipse fill="#b0e2ff" stroke="black" stroke-width="0" cx="274.23" cy="-117.8" rx="7" ry="7"/>
<text text-anchor="middle" x="274.23" y="-115.1" font-family="Times,serif" font-size="9.00">I</text>
<text text-anchor="middle" x="253.49" y="-127.5" font-family="Times,serif" font-size="9.00">Factory</text>
</g>
<!-- Client&#45;&gt;Factory -->
<g id="edge1" class="edge" data-name="Client-&gt;Factory">

<path fill="none" stroke="slategray" stroke-dasharray="5,2" d="M221.36,-79.38C230.24,-85.84 248.25,-98.92 260.76,-108.01"/>
<polygon fill="slategray" stroke="slategray" points="268.7,-113.78 257.96,-111.54 264.65,-110.84 260.61,-107.9 260.61,-107.9 260.61,-107.9 264.65,-110.84 263.25,-104.26 268.7,-113.78 268.7,-113.78"/>
</g>
<!-- Product -->
<g id="node3" class="node" pointer-events="visible" data-name="Product">

<ellipse fill="#b0e2ff" stroke="black" stroke-width="0" cx="157.73" cy="-117.8" rx="7" ry="7"/>
<text text-anchor="middle" x="157.73" y="-115.1" font-family="Times,serif" font-size="9.00">I</text>
<text text-anchor="middle" x="136.73" y="-127.5" font-family="Times,serif" font-size="9.00">Product</text>
</g>
<!-- Client&#45;&gt;Product -->
<g id="edge4" class="edge" data-name="Client-&gt;Product">

<path fill="none" stroke="slategray" d="M210.61,-79.38C201.72,-85.84 183.72,-98.92 171.2,-108.01" stroke-dasharray="5,2"/>
<polygon fill="slategray" stroke="slategray" points="163.27,-113.78 168.71,-104.26 167.31,-110.84 171.36,-107.9 171.36,-107.9 171.36,-107.9 167.31,-110.84 174,-111.54 163.27,-113.78 163.27,-113.78"/>
</g>
<!-- ConcreteFactory1 -->
<g id="node4" class="node" pointer-events="visible" data-name="ConcreteFactory1">

<ellipse fill="#9ac0cd" stroke="black" stroke-width="0" cx="193.73" cy="-7" rx="7" ry="7"/>
<text text-anchor="middle" x="193.73" y="-4.3" font-family="Times,serif" font-size="9.00">C</text>
<text text-anchor="middle" x="154.49" y="-16.7" font-family="Times,serif" font-size="9.00">ConcreteFactory1</text>
</g>
<!-- Client&#45;&gt;ConcreteFactory1 -->
<g id="edge2" class="edge" data-name="Client-&gt;ConcreteFactory1">

<path fill="none" stroke="slategray" stroke-dasharray="5,2" d="M213.85,-68.91C210.42,-58.35 203.58,-37.3 198.83,-22.7"/>
<polygon fill="slategray" stroke="slategray" points="195.83,-13.45 203.2,-21.57 197.37,-18.2 198.92,-22.96 198.92,-22.96 198.92,-22.96 197.37,-18.2 194.64,-24.35 195.83,-13.45 195.83,-13.45"/>
</g>
<!-- ConcreteFactory2 -->
<g id="node5" class="node" pointer-events="visible" data-name="ConcreteFactory2">

<ellipse fill="#9ac0cd" stroke="black" stroke-width="0" cx="274.23" cy="-33.16" rx="7" ry="7"/>
<text text-anchor="middle" x="274.23" y="-30.46" font-family="Times,serif" font-size="9.00">C</text>
<text text-anchor="middle" x="234.99" y="-42.86" font-family="Times,serif" font-size="9.00">ConcreteFactory2</text>
</g>
<!-- Client&#45;&gt;ConcreteFactory2 -->
<g id="edge3" class="edge" data-name="Client-&gt;ConcreteFactory2">

<path fill="none" stroke="slategray" stroke-dasharray="5,2" d="M221.36,-71.57C230.24,-65.12 248.25,-52.03 260.76,-42.94"/>
<polygon fill="slategray" stroke="slategray" points="268.7,-37.18 263.25,-46.69 264.65,-40.11 260.61,-43.05 260.61,-43.05 260.61,-43.05 264.65,-40.11 257.96,-39.41 268.7,-37.18 268.7,-37.18"/>
</g>
<!-- ConcreteFactory1&#45;&gt;Factory -->
<g id="edge5" class="edge" data-name="ConcreteFactory1-&gt;Factory">

<path fill="none" stroke="slategray" stroke-dasharray="5,2" d="M197.84,-12.65C210.11,-29.54 246.78,-80.01 264.47,-104.36"/>
<polygon fill="slategray" stroke="slategray" points="270.23,-112.29 260.71,-106.85 267.29,-108.25 264.35,-104.2 264.35,-104.2 264.35,-104.2 267.29,-108.25 268,-101.56 270.23,-112.29 270.23,-112.29"/>
</g>
<!-- ConcreteFactory2&#45;&gt;Factory -->

<!-- ConcreteProduct1 -->
<g id="node6" class="node" pointer-events="visible" data-name="ConcreteProduct1">

<ellipse fill="#9ac0cd" stroke="black" stroke-width="0" cx="171.48" cy="-212.43" rx="7" ry="7"/>
<text text-anchor="middle" x="171.48" y="-209.73" font-family="Times,serif" font-size="9.00">C</text>
<text text-anchor="middle" x="131.99" y="-222.13" font-family="Times,serif" font-size="9.00">ConcreteProduct1</text>
</g><g id="edge7" class="edge" data-name="ConcreteFactory1-&gt;ConcreteProduct1" data-comment="ConcreteProduct1">

<path fill="none" stroke="slategray" d="M192.99,-13.83C189.88,-42.53 177.84,-153.74 173.26,-196.01" stroke-dasharray="5,2"/>
<polygon fill="slategray" stroke="slategray" points="172.2,-205.78 168.81,-195.35 172.74,-200.8 173.28,-195.83 173.28,-195.83 173.28,-195.83 172.74,-200.8 177.75,-196.32 172.2,-205.78 172.2,-205.78"/>
</g>
<!-- ConcreteProduct1&#45;&gt;Product -->
<g id="edge9" class="edge" data-name="ConcreteProduct1-&gt;Product">

<path fill="none" stroke="slategray" stroke-dasharray="5,2" d="M170.49,-205.62C168.34,-190.82 163.19,-155.35 160.13,-134.29"/>
<polygon fill="slategray" stroke="slategray" points="158.71,-124.54 164.6,-133.79 159.43,-129.49 160.15,-134.44 160.15,-134.44 160.15,-134.44 159.43,-129.49 155.7,-135.08 158.71,-124.54 158.71,-124.54"/>
</g><g id="edge6" class="edge" data-name="ConcreteFactory2-&gt;Factory" data-comment="ConcreteProduct1-&gt;Product">

<path fill="none" stroke="slategray" d="M274.23,-40.08C274.23,-53.29 274.23,-82.42 274.23,-101.02" stroke-dasharray="5,2"/>
<polygon fill="slategray" stroke="slategray" points="274.23,-111.01 269.73,-101.01 274.23,-106.01 274.23,-101.01 274.23,-101.01 274.23,-101.01 274.23,-106.01 278.73,-101.01 274.23,-111.01 274.23,-111.01"/>
</g>
<!-- ConcreteProduct2 -->
<g id="node7" class="node" pointer-events="visible" data-name="ConcreteProduct2">

<ellipse fill="#9ac0cd" stroke="black" stroke-width="0" cx="71.98" cy="-75.48" rx="7" ry="7"/>
<text text-anchor="middle" x="71.98" y="-72.78" font-family="Times,serif" font-size="9.00">C</text>
<text text-anchor="middle" x="32.49" y="-85.18" font-family="Times,serif" font-size="9.00">ConcreteProduct2</text>
</g>
<!-- ConcreteProduct2&#45;&gt;Product -->
<!-- ConcreteProduct2&#45;&gt;Product -->
<!-- ConcreteProduct2&#45;&gt;Product -->
<g id="edge10" class="edge" data-name="ConcreteProduct2-&gt;Product">

<path fill="none" stroke="slategray" stroke-dasharray="5,2" d="M78.15,-78.52C91.56,-85.14 123.7,-101 142.78,-110.42"/>
<polygon fill="slategray" stroke="slategray" points="151.62,-114.78 140.66,-114.39 147.14,-112.57 142.65,-110.35 142.65,-110.35 142.65,-110.35 147.14,-112.57 144.65,-106.32 151.62,-114.78 151.62,-114.78"/>
</g><g id="edge8" class="edge" data-name="ConcreteFactory2-&gt;ConcreteProduct2" data-comment="ConcreteProduct2-&gt;Product">

<path fill="none" stroke="slategray" d="M267.5,-34.56C239.25,-40.48 129.76,-63.39 88.15,-72.09" stroke-dasharray="5,2"/>
<polygon fill="slategray" stroke="slategray" points="78.53,-74.11 87.4,-67.65 83.43,-73.08 88.32,-72.06 88.32,-72.06 88.32,-72.06 83.43,-73.08 89.24,-76.46 78.53,-74.11 78.53,-74.11"/>
</g>


</g>
</svg>